# xmcd
#
# Track frame offsets:
#	150
#	17636
#	36940
#	49841
#	63326
#	74283
#	91169
#	100675
#	115169
#	128544
#	139136
#	153551
#
# Disc length: 2230 seconds
#
# Revision: 0
# Processed by: cddbd v1.5.2PL0 Copyright (c) Steve Scherf et al.
# Submitted via: EasyCDDAExtractor 10.0.6.1
#
DISCID=9a08b40c
DTITLE=Day Blues - "the album"
DYEAR=2007
DGENRE=
TTITLE0=step aside
TTITLE1=forgive but never forget
TTITLE2=lost within the sound
TTITLE3=the coffee
TTITLE4=expensive wisdom
TTITLE5=just cruise
TTITLE6=city life
TTITLE7=earthshakin'
TTITLE8=touch the game
TTITLE9=rise (a cry for humanity)
TTITLE10=brown sugar - remix
TTITLE11=no time for turning back
EXTD=
EXTT0=
EXTT1=
EXTT2=
EXTT3=
EXTT4=
EXTT5=
EXTT6=
EXTT7=
EXTT8=
EXTT9=
EXTT10=
EXTT11=
PLAYORDER=
